<svg xmlns="http://www.w3.org/2000/svg" width="189" height="90" viewBox="0 0 189 90">
    <g fill="none" fill-rule="evenodd">
        <path fill="#FFF" fill-opacity=".01" d="M0 0h189v90H0z"/>
        <g fill-rule="nonzero" transform="translate(27 1.125)">
            <path fill="#000" d="M4.199 82.143a5.803 5.803 0 0 0 5.045 2.465c2.351 0 4.08-1.502 4.08-3.543v-1.077h-.057a6.406 6.406 0 0 1-4.846 1.814 7.852 7.852 0 1 1-.142-15.7 6.748 6.748 0 0 1 4.988 1.756h.057v-1.473h4.025v14.624c0 4.25-3.372 7.198-8.105 7.198a9.686 9.686 0 0 1-8.05-3.57L4.2 82.142zm8.956-9.098c0-1.7-1.928-3.26-4.082-3.26-2.72 0-4.535 1.645-4.535 4.11a3.97 3.97 0 0 0 4.365 4.223c2.352 0 4.252-1.474 4.252-3.317v-1.756zM27.896 65.96c4.903 0 8.474 3.486 8.474 7.935 0 4.45-3.571 7.936-8.474 7.936a7.953 7.953 0 1 1 0-15.871zm0 3.683a4.251 4.251 0 1 0 4.28 4.252 4.07 4.07 0 0 0-4.28-4.252zM41.902 82.143a5.803 5.803 0 0 0 5.045 2.465c2.35 0 4.08-1.502 4.08-3.543v-1.077h-.057a6.406 6.406 0 0 1-4.846 1.814 7.852 7.852 0 1 1-.142-15.7 6.748 6.748 0 0 1 4.988 1.756h.057v-1.473h4.024v14.624c0 4.25-3.371 7.198-8.104 7.198a9.686 9.686 0 0 1-8.05-3.57l3.005-2.494zm8.956-9.098c0-1.7-1.928-3.26-4.083-3.26-2.72 0-4.534 1.645-4.534 4.11a3.97 3.97 0 0 0 4.365 4.223c2.352 0 4.252-1.474 4.252-3.317v-1.756zM63.927 72.45c2.749-.369 3.57-.765 3.57-1.531 0-.992-1.047-1.586-2.663-1.586a3.541 3.541 0 0 0-3.741 2.691l-3.968-.822c.566-3.06 3.713-5.242 7.596-5.242 4.392 0 7.112 2.239 7.112 5.894v9.551h-3.768v-1.643h-.057a6.202 6.202 0 0 1-5.074 2.069c-3.316 0-5.612-1.814-5.612-4.478 0-2.806 1.872-4.251 6.605-4.904zm3.911 1.587h-.057c-.369.538-1.162.85-3.203 1.218-2.466.454-3.345.935-3.345 1.814 0 .908.739 1.304 2.325 1.304 2.408 0 4.28-1.105 4.28-2.55v-1.786zM74.53 66.385h3.684v1.445h.057a6.544 6.544 0 0 1 9.381.227h.056a6.572 6.572 0 0 1 4.903-2.097c4.053 0 6.86 2.664 6.86 6.46v8.985h-4.054v-8.332a3.236 3.236 0 1 0-6.46 0v8.332h-3.883v-8.332a3.25 3.25 0 1 0-6.491 0v8.332H74.53v-15.02zM109.736 65.96a7.774 7.774 0 0 1 8.163 8.077v1.19h-12.186c.14 1.955 1.756 3.202 4.25 3.202a5.981 5.981 0 0 0 4.62-2.239l2.607 2.608a9.188 9.188 0 0 1-7.198 3.033c-5.244 0-8.418-3.146-8.418-7.907a7.795 7.795 0 0 1 8.162-7.964zm4.082 6.319c-.198-1.785-1.757-2.919-3.996-2.919-2.268 0-3.826 1.134-4.053 2.919h8.05zM122.92 75.596c.595 1.927 2.124 2.89 4.535 2.89 2.181 0 3.428-.482 3.428-1.304 0-.878-.906-1.275-3.712-1.7-5.499-.85-7.454-2.182-7.454-4.875 0-2.777 2.777-4.647 6.916-4.647 3.768 0 7.198 1.927 7.991 4.534l-3.825 1.162a4.263 4.263 0 0 0-4.195-2.352c-1.729 0-2.863.51-2.863 1.303 0 .794.793 1.078 4.11 1.645 5.073.793 7.085 2.181 7.085 4.902 0 2.806-3.003 4.677-7.51 4.677a10.33 10.33 0 0 1-5.612-1.446 5.949 5.949 0 0 1-2.834-3.854l3.94-.935z"/>
            <circle cx="67.5" cy="27.968" r="27" fill="#DF1995"/>
            <path fill="#FFF" d="M76.579 16.144a75.416 75.416 0 0 0-18.158 0A11.58 11.58 0 0 0 48.375 27.63v.675a11.58 11.58 0 0 0 10.046 11.487c6.03.73 12.127.73 18.158 0a11.58 11.58 0 0 0 10.046-11.487v-.675a11.58 11.58 0 0 0-10.046-11.486zM62.438 30.218H60.75v1.687a1.688 1.688 0 0 1-3.375 0v-1.687h-1.688a1.687 1.687 0 0 1 0-3.375h1.688v-1.688a1.688 1.688 0 0 1 3.375 0v1.688h1.688a1.688 1.688 0 0 1 0 3.375zm13.5-6.75a1.685 1.685 0 1 1-.005 0h.004zm-3.376 6.75a1.685 1.685 0 1 1 .005 0h-.004zm3.376 3.375a1.685 1.685 0 1 1 .004 0h-.004zm3.374-3.375a1.685 1.685 0 1 1 .005 0h-.004z"/>
        </g>
    </g>
</svg>
