<svg xmlns="http://www.w3.org/2000/svg" width="168" height="80" viewBox="0 0 168 80">
    <g fill="none" fill-rule="evenodd">
        <g>
            <g>
                <g fill="#FFF" fill-opacity=".01">
                    <path d="M0 0H168V80H0z" transform="translate(-405 -2946) translate(405 2946)"/>
                </g>
                <g fill-rule="nonzero" transform="translate(-405 -2946) translate(405 2946) translate(19 1)">
                    <path fill="#000" d="M3.87 73.009c1.019 1.453 2.712 2.28 4.484 2.191 2.091 0 3.627-1.335 3.627-3.15v-.956h-.05c-1.145 1.119-2.709 1.704-4.308 1.612-2.525.073-4.893-1.225-6.19-3.393-1.297-2.168-1.321-4.868-.063-7.059 1.257-2.19 3.6-3.53 6.127-3.504 1.63-.104 3.23.46 4.435 1.562h.05v-1.31h3.577v12.999c0 3.778-2.997 6.398-7.204 6.398-2.756.15-5.417-1.03-7.156-3.173l2.671-2.217zm7.961-8.087c0-1.512-1.714-2.898-3.628-2.898-2.419 0-4.031 1.462-4.031 3.654-.072 1.038.319 2.055 1.067 2.78.748.723 1.777 1.08 2.813.974 2.09 0 3.779-1.31 3.779-2.949v-1.561zM24.935 58.624c4.358 0 7.532 3.099 7.532 7.054s-3.174 7.053-7.532 7.053c-2.631.173-5.14-1.132-6.507-3.386-1.368-2.254-1.368-5.081 0-7.335 1.368-2.253 3.876-3.559 6.507-3.386zm0 3.274c-2.084.014-3.763 1.712-3.755 3.796.01 2.083 1.704 3.766 3.787 3.762 2.084-.004 3.771-1.695 3.771-3.778.047-1.02-.339-2.013-1.064-2.733-.724-.72-1.72-1.1-2.74-1.047zM39.727 62.176v5.643c0 .831.277 1.083 1.36 1.083h2.443v3.452H40.71c-3.35 0-4.71-1.31-4.71-4.308v-5.87h-3.15v-3.174h3.15l-.001-3.35h3.729v3.35h4.307v3.174h-4.307zM50.839 64.393c2.443-.328 3.175-.68 3.175-1.36 0-.883-.933-1.41-2.368-1.41-1.547-.132-2.96.883-3.327 2.392l-3.526-.73c.504-2.722 3.3-4.661 6.751-4.661 3.905 0 6.323 1.99 6.323 5.24v8.49h-3.35v-1.461h-.05c-1.137 1.28-2.803 1.959-4.51 1.838-2.947 0-4.988-1.612-4.988-3.98 0-2.494 1.663-3.778 5.87-4.358zm3.476 1.41h-.05c-.328.48-1.033.757-2.847 1.084-2.191.403-2.973.83-2.973 1.612 0 .807.656 1.16 2.067 1.16 2.14 0 3.803-.983 3.803-2.268v-1.587zM63.161 73.009c1.019 1.453 2.712 2.28 4.485 2.191 2.09 0 3.627-1.335 3.627-3.15v-.956h-.05c-1.146 1.119-2.71 1.704-4.308 1.612-2.525.073-4.893-1.225-6.19-3.393-1.297-2.168-1.321-4.868-.063-7.059 1.257-2.19 3.6-3.53 6.127-3.504 1.629-.104 3.23.46 4.434 1.562h.05v-1.31h3.578v12.999c0 3.778-2.998 6.398-7.206 6.398-2.755.15-5.416-1.03-7.154-3.173l2.67-2.217zm7.961-8.087c0-1.512-1.713-2.898-3.628-2.898-2.418 0-4.03 1.462-4.03 3.654-.072 1.038.319 2.055 1.067 2.78.748.723 1.777 1.08 2.813.974 2.09 0 3.778-1.31 3.778-2.949v-1.561zM77.121 53.081h3.855v3.729H77.12V53.08zm.076 5.92l3.729.001v13.352h-3.729V59.002zM83.446 53.963h3.729v6.299h.05c1.188-1.104 2.763-1.693 4.383-1.638 3.78 0 6.4 2.494 6.4 6.097v7.633h-3.729v-7.13c0-2.04-1.335-3.275-3.476-3.275-.926-.09-1.847.213-2.538.836-.69.623-1.086 1.508-1.09 2.439v7.13h-3.729V53.963zM105.896 64.393c2.444-.328 3.175-.68 3.175-1.36 0-.883-.932-1.41-2.368-1.41-1.547-.132-2.959.883-3.326 2.392l-3.526-.73c.503-2.722 3.3-4.661 6.75-4.661 3.906 0 6.324 1.99 6.324 5.24v8.49h-3.35v-1.461h-.05c-1.137 1.28-2.803 1.959-4.51 1.838-2.948 0-4.989-1.612-4.989-3.98 0-2.494 1.663-3.778 5.87-4.358zm3.477 1.41h-.05c-.328.48-1.033.757-2.847 1.084-2.192.403-2.973.83-2.973 1.612 0 .807.655 1.16 2.066 1.16 2.141 0 3.804-.983 3.804-2.268v-1.587zM115.322 59.002h3.603v1.26h.05c1.244-1.093 2.854-1.678 4.51-1.638 3.778 0 6.398 2.494 6.398 6.121v7.609h-3.729v-7.13c0-2.04-1.335-3.275-3.476-3.275-.926-.09-1.847.213-2.537.836s-1.086 1.509-1.09 2.439v7.13h-3.729V59.002z"/>
                    <circle cx="65.354" cy="24.32" r="24" fill="#00AED6"/>
                    <path fill="#FFF" d="M75.894 16.092c-.218-2.774-2.359-5.01-5.12-5.35-4.974-.56-9.996-.56-14.97 0-5.88.66-5.27 7.08-5.45 11.65h3v-5.2c0-.552.448-1 1-1s1 .448 1 1v18.2c1-1 1-1 1.69-1.72.27-.24.632-.353.992-.31.36.045.683.241.888.54.51.65.98 1.37 1.51 2.01.232.281.57.453.934.476.364.023.72-.106.986-.356.61-.57 1.26-1.23 1.85-1.82.243-.258.58-.407.934-.412.354-.006.695.132.946.382.53.53.75 1.26 1.34 1.83.26.259.618.396.985.379.366-.017.71-.187.945-.469.507-.82 1.194-1.515 2.01-2.03.055-.03.111-.057.17-.08-.21 0-.43.01-.65.02h-.1c-.901.005-1.735-.477-2.18-1.26-.451-.82-.428-1.82.06-2.62 2.05-3.392 3.695-7.013 4.9-10.79.265-.875.966-1.549 1.85-1.78.19-.043.385-.067.58-.07-.03-.4-.06-.81-.1-1.22zm-9.58 9.23h-7c-.552 0-1-.448-1-1s.448-1 1-1h7c.552 0 1 .448 1 1s-.448 1-1 1zm5-6.24c.001.258-.1.505-.283.688-.182.182-.43.284-.687.282h-11.06c-.536 0-.97-.434-.97-.97v-.06c.004-.534.436-.966.97-.97h11.06c.535 0 .97.435.97.97v.06zM76.284 25.222c0 .74-.01 1.49-.03 2.24-.085-.07-.127-.18-.11-.29.06-.64.1-1.29.14-1.95z"/>
                    <path fill="#FFF" d="M76.284 25.222c0 .74-.01 1.49-.03 2.24-.085-.07-.127-.18-.11-.29.06-.64.1-1.29.14-1.95z"/>
                    <path fill="#00AED6" d="M76.144 27.172c-.017.11.025.22.11.29.02-.75.03-1.5.03-2.24-.04.66-.08 1.31-.14 1.95z"/>
                    <path fill="#FFF" d="M76.284 25.222c0 .74-.01 1.49-.03 2.24-.085-.07-.127-.18-.11-.29.06-.64.1-1.29.14-1.95z"/>
                    <path fill="#FFF" d="M81.284 27.932c-1.763 3.97-3.97 7.727-6.58 11.2-.096.148-.255.243-.43.26h-.05c-.22-.02-.39-.25-.28-.58.37-1.26.7-2.55.99-3.85.22-.98.42-1.98.59-2.98.024-.088.005-.181-.05-.254-.054-.072-.14-.115-.23-.116h-.02c-1.47.04-2.94.09-4.41.14h-.03c-.37 0-.55-.37-.34-.72 2.129-3.525 3.837-7.287 5.09-11.21.038-.197.18-.357.37-.42.033-.008.066-.011.1-.01.05-.002.099.012.14.04.15.099.234.271.22.45.01.29.01.59.01.88.02.76.02 1.52 0 2.27-.01.012-.01.029 0 .04-.01.68-.04 1.35-.08 2.02-.008.043-.012.086-.01.13-.04.66-.08 1.31-.14 1.95-.017.11.025.22.11.29.048.048.113.073.18.07h.04c1.46-.15 2.92-.3 4.39-.44.015-.008.033-.012.05-.01.36 0 .55.44.37.85z"/>
                    <path fill="#00AED6" d="M76.144 27.172c-.017.11.025.22.11.29.02-.75.03-1.5.03-2.24-.04.66-.08 1.31-.14 1.95z"/>
                </g>
            </g>
        </g>
    </g>
</svg>
