<svg xmlns="http://www.w3.org/2000/svg" width="189" height="90" viewBox="0 0 189 90">
    <g fill="none" fill-rule="evenodd">
        <path fill="#FFF" fill-opacity=".01" d="M0 .01h189v90H0z"/>
        <g fill-rule="nonzero">
            <path fill="#00AA13" d="M83.9 27.71c0-5.737 4.652-10.39 10.39-10.39 5.736 0 10.388 4.653 10.388 10.39 0 5.737-4.652 10.389-10.389 10.389-5.737 0-10.389-4.648-10.389-10.39"/>
            <path fill="#00AA13" d="M94.29.01c-15.301 0-27.704 12.403-27.704 27.703 0 11.485 6.935 21.29 17.007 25.557a5.195 5.195 0 0 0 4.014-9.584v-.003c-6.243-2.615-10.628-8.779-10.628-15.97 0-9.563 7.75-17.314 17.314-17.314 9.563 0 17.314 7.751 17.314 17.314 0 7.191-4.386 13.355-10.628 15.97v.003a5.199 5.199 0 0 0-2.782 6.802 5.198 5.198 0 0 0 6.799 2.782c10.068-4.267 17.007-14.072 17.007-25.557C121.993 12.41 109.59.007 94.289.01"/>
            <path fill="#000" d="M52.658 86.184l3.184-2.641c1.652 1.952 3.004 2.614 5.345 2.614 2.46 0 4.324-1.59 4.324-3.754v-1.14h-.061c-1.113 1.232-2.942 1.921-5.137 1.921-4.894 0-8.56-3.542-8.56-8.379 0-4.655 3.574-8.259 8.41-8.259 2.253 0 4.143.662 5.287 1.864h.061v-1.56h4.266v15.495c0 4.505-3.542 7.628-8.59 7.628-3.666-.007-6.638-1.328-8.53-3.789zM65.33 75.761v-1.863c0-1.833-2.013-3.454-4.324-3.454-2.911 0-4.805 1.771-4.805 4.355 0 2.791 1.77 4.474 4.624 4.474 2.522.003 4.505-1.56 4.505-3.512zM72.064 74.802c0-4.744 3.754-8.41 8.98-8.41 5.255 0 8.979 3.666 8.979 8.41s-3.724 8.406-8.98 8.406c-5.225 0-8.979-3.662-8.979-8.406zm13.515 0c0-2.584-1.771-4.505-4.535-4.505-2.765 0-4.536 1.921-4.536 4.505 0 2.584 1.771 4.505 4.536 4.505 2.764 0 4.535-1.925 4.535-4.505zM88.17 84.89h2.403c1.29 0 1.74-.48 1.74-1.62V66.843h4.444v16.485c0 3.935-1.59 5.614-5.826 5.614h-2.765l.004-4.051zM99.047 74.83c0-4.895 3.604-8.438 8.648-8.438 5.345 0 8.649 3.785 8.649 8.56v1.26h-12.911c.15 2.071 1.832 3.392 4.505 3.392 1.983 0 3.361-.781 4.894-2.372l2.761 2.761c-1.833 2.014-4.205 3.212-7.628 3.212-5.584.003-8.918-3.328-8.918-8.376zm12.973-1.741c-.212-1.864-1.864-3.092-4.236-3.092-2.403 0-4.054 1.232-4.293 3.092h8.529zM118.637 62.184h4.444V73.24h.061l7.178-6.396h6.215l-7.474 6.485 7.778 9.43h-5.437l-5.318-6.727h-.061l-2.942 2.491v4.236h-4.444z"/>
        </g>
    </g>
</svg>
