<?xml version="1.0" encoding="UTF-8"?>
<svg width="156px" height="88px" viewBox="0 0 156 88" version="1.1" xmlns="http://www.w3.org/2000/svg" xmlns:xlink="http://www.w3.org/1999/xlink">
    <title>vertical copy</title>
    <g id="vertical-copy" stroke="none" stroke-width="1" fill="none" fill-rule="evenodd">
        <g id="Group-23" transform="translate(60.000000, 0.000000)" fill="#00AED6">
            <g id="Group" transform="translate(0.946415, 0.416207)">
                <path d="M28.3409317,11.1063072 L8.59278834,0.683080049 C5.77090427,-0.805014866 2.24439003,0.218768185 0.717411051,2.97182581 C-0.807886237,5.72652412 0.24149139,9.16538513 3.06337546,10.6551207 L22.8132005,21.0767072 C23.632186,21.5082055 23.9365727,22.5073784 23.494287,23.3063885 C23.3378894,23.5869445 23.1007704,23.8166394 22.8132005,23.9692224 L3.06337546,34.3908089 C0.24149139,35.8805445 -0.807886237,39.3194055 0.717411051,42.0741038 C2.24439003,44.8271614 5.77090427,45.8509445 8.59278834,44.3628495 L28.3409317,33.9396224 C34.805367,30.5286529 37.208509,22.6533987 33.7122653,16.3466326 C32.4829463,14.128436 30.6162649,12.3072834 28.3409317,11.1063072" id="Fill-18"></path>
                <path d="M0.916523729,29.3371926 C1.48661831,29.681735 2.19797525,29.7129078 2.79834034,29.4225078 L13.5275539,24.2133553 C14.4844383,23.7490434 14.8745915,22.615335 14.3986719,21.6817892 C14.210322,21.3126367 13.9042536,21.0156739 13.5275539,20.831918 L2.79834034,15.6244062 C1.84145593,15.1584536 0.679404746,15.5390909 0.203485085,16.4726367 C0.0689494915,16.7351451 -4.20596891e-14,17.0222638 -4.20596891e-14,17.3143045 L-4.20596891e-14,27.7309689 C-4.20596891e-14,28.3855994 0.346429153,28.9926502 0.916523729,29.3371926" id="Fill-20"></path>
            </g>
        </g>
        <path d="M25.7696335,88 L25.7696335,79.6125654 L25.8324607,79.6125654 C26.7748691,80.6806283 28.4712042,81.4031414 30.3246073,81.4031414 C34.6596859,81.4031414 37.7696335,77.7591623 37.7696335,72.6073298 C37.7696335,67.4554974 34.6596859,63.8115183 30.2931937,63.8115183 C28.408377,63.8115183 26.8062827,64.5026178 25.7382199,65.6020942 L25.6753927,65.6020942 L25.6753927,64.2827225 L22,64.2827225 L22,88 L25.7696335,88 Z M29.6963351,77.947644 C27.4659686,77.947644 25.7696335,76.2198953 25.7696335,73.9267016 L25.7696335,71.2565445 C25.7696335,68.9947644 27.4659686,67.2670157 29.7591623,67.2670157 C32.3979058,67.2670157 34,69.2774869 34,72.6073298 C34,75.9057592 32.3664921,77.947644 29.6963351,77.947644 Z M45.2460733,81.4031414 C47.2879581,81.4031414 48.921466,80.7120419 49.7696335,79.486911 L49.8324607,79.486911 L49.8324607,80.9319372 L53.2565445,80.9319372 L53.2565445,69.8429319 C53.2565445,66.104712 50.7434555,63.8115183 46.7225131,63.8115183 C43.0157068,63.8115183 40.1884817,65.9790576 39.6544503,69.2460733 L43.2041885,70 C43.5497382,68.1465969 44.8376963,67.0471204 46.7225131,67.0471204 C48.3874346,67.0471204 49.3926702,67.7382199 49.3926702,68.9319372 C49.3926702,69.9685864 48.513089,70.5026178 45.7172775,71.1937173 C41.4450262,72.1989529 39.7801047,73.7068063 39.7801047,76.5026178 C39.7801047,79.486911 41.947644,81.4031414 45.2460733,81.4031414 Z M45.8743455,78.1361257 C44.2722513,78.1361257 43.4240838,77.5078534 43.4240838,76.2513089 C43.4240838,75.2146597 44.2722513,74.5863874 46.5968586,73.9895288 C48.3560209,73.486911 49.1727749,73.0471204 49.486911,72.4502618 L49.5497382,72.4502618 L49.5497382,75.3089005 C49.5497382,76.973822 48.0418848,78.1361257 45.8743455,78.1361257 Z M61.3298429,88 L71.0366492,64.2827225 L67.1413613,64.2827225 L62.7434555,75.4973822 L62.6806283,75.4973822 L58.3141361,64.2827225 L54.3874346,64.2827225 L60.7958115,79.895288 L57.4659686,88 L61.3298429,88 Z M76.6282723,80.9319372 L76.6282723,58 L72.8586387,58 L72.8586387,80.9319372 L76.6282723,80.9319372 Z M85.0471204,81.4031414 C87.0890052,81.4031414 88.7225131,80.7120419 89.5706806,79.486911 L89.6335079,79.486911 L89.6335079,80.9319372 L93.0575916,80.9319372 L93.0575916,69.8429319 C93.0575916,66.104712 90.5445026,63.8115183 86.5235602,63.8115183 C82.8167539,63.8115183 79.9895288,65.9790576 79.4554974,69.2460733 L83.0052356,70 C83.3507853,68.1465969 84.6387435,67.0471204 86.5235602,67.0471204 C88.1884817,67.0471204 89.1937173,67.7382199 89.1937173,68.9319372 C89.1937173,69.9685864 88.3141361,70.5026178 85.5183246,71.1937173 C81.2460733,72.1989529 79.5811518,73.7068063 79.5811518,76.5026178 C79.5811518,79.486911 81.7486911,81.4031414 85.0471204,81.4031414 Z M85.6753927,78.1361257 C84.0732984,78.1361257 83.2251309,77.5078534 83.2251309,76.2513089 C83.2251309,75.2146597 84.0732984,74.5863874 86.3979058,73.9895288 C88.1570681,73.486911 88.973822,73.0471204 89.2879581,72.4502618 L89.3507853,72.4502618 L89.3507853,75.3089005 C89.3507853,76.973822 87.8429319,78.1361257 85.6753927,78.1361257 Z M104.554974,80.9319372 L104.554974,77.3193717 L102.890052,77.3193717 C101.539267,77.3193717 101.13089,76.973822 101.13089,75.9057592 L101.13089,67.6439791 L105.246073,67.6439791 L105.246073,64.2827225 L101.13089,64.2827225 L101.13089,60.2303665 L97.3612565,60.2303665 L97.3612565,64.2827225 L94.6282723,64.2827225 L94.6282723,67.6439791 L97.3612565,67.6439791 L97.3612565,76.0942408 C97.3612565,79.6125654 98.8062827,80.9319372 102.544503,80.9319372 L104.554974,80.9319372 Z M114.167539,81.4031414 C117.340314,81.4031414 119.790576,80.052356 121.298429,77.4136126 L118.534031,75.4031414 C117.277487,77.3507853 116.020942,78.1361257 114.167539,78.1361257 C111.780105,78.1361257 110.272251,76.3455497 110.146597,73.7068063 L121.801047,73.7068063 L121.801047,72.4188482 C121.801047,67.2984293 118.722513,63.8115183 114.104712,63.8115183 C109.518325,63.8115183 106.34555,67.3926702 106.34555,72.6073298 C106.34555,77.8534031 109.518325,81.4031414 114.167539,81.4031414 Z M118.062827,70.9424084 L110.17801,70.9424084 C110.303665,68.7434555 111.937173,67.078534 114.136126,67.078534 C116.492147,67.078534 117.937173,68.617801 118.062827,70.9424084 Z M128.397906,80.9319372 L128.397906,71.6020942 C128.397906,68.9319372 129.403141,67.6439791 131.319372,67.6439791 C131.884817,67.6439791 132.418848,67.7382199 133.109948,67.9267016 L133.769634,64.2513089 C133.172775,64.0628272 132.513089,63.9685864 131.759162,63.9685864 C130.157068,63.9685864 128.931937,64.6596859 128.240838,65.7277487 L128.17801,65.7277487 L128.17801,64.2827225 L124.628272,64.2827225 L124.628272,80.9319372 L128.397906,80.9319372 Z" id="paylater" fill="#000000" fill-rule="nonzero"></path>
    </g>
</svg>