<svg xmlns="http://www.w3.org/2000/svg" width="189" height="90" viewBox="0 0 189 90">
    <g fill="none" fill-rule="evenodd">
        <g>
            <g>
                <g fill="#FFF" fill-opacity=".01">
                    <path d="M0 0H189V90H0z" transform="translate(-57 -2946) translate(57 2946)"/>
                </g>
                <g fill-rule="nonzero">
                    <path fill="#00AED6" d="M32.979 25.38c0 1.22-.979 2.216-2.199 2.237h-2.237v2.199c0 1.214-.984 2.198-2.199 2.198-1.205-.02-2.178-.993-2.198-2.198v-2.199h-2.199c-.862.114-1.712-.282-2.18-1.015-.467-.734-.467-1.672 0-2.405.468-.733 1.318-1.13 2.18-1.016h2.199v-2.198c0-1.22.978-2.216 2.198-2.237.59 0 1.155.237 1.569.657.413.42.64.99.63 1.58v2.198h2.237c1.206.021 2.178.993 2.199 2.199z" transform="translate(-57 -2946) translate(57 2946) translate(68.625 1.125)"/>
                    <path fill="#00AED6" d="M26.499 0C11.864 0 0 11.864 0 26.499c0 14.634 11.864 26.498 26.499 26.498 14.634 0 26.498-11.864 26.498-26.498 0-7.028-2.792-13.768-7.761-18.738C40.266 2.791 33.526 0 26.499 0zm13.924 31.899c-1.013 2.366-2.526 4.484-4.436 6.21-2.512 2.126-5.442 3.703-8.601 4.628-.11.05-.237.05-.347 0h-1.08-.348c-3.158-.925-6.089-2.502-8.601-4.628-1.975-1.666-3.5-3.802-4.436-6.21-1.228-3.225-1.817-6.657-1.735-10.106v-3.857c.217-1.963 1.882-3.445 3.857-3.433 3.737-.015 7.341-1.385 10.144-3.857.473-.373 1.057-.576 1.659-.579.567-.003 1.117.203 1.542.579 2.813 2.48 6.433 3.851 10.183 3.857 1.93-.003 3.523 1.506 3.626 3.433v1.08c.32 4.356-.218 8.733-1.581 12.883h.154z" transform="translate(-57 -2946) translate(57 2946) translate(68.625 1.125)"/>
                    <path fill="#FFF" d="M41.696 18.861v-.925c-.103-1.927-1.697-3.436-3.626-3.433-3.75-.006-7.37-1.377-10.183-3.857-.426-.376-.975-.582-1.543-.579-.602.003-1.185.206-1.658.579-2.803 2.472-6.408 3.842-10.145 3.857-1.826.173-3.277 1.609-3.471 3.433v4.011c-.131 3.44.406 6.871 1.581 10.106.936 2.409 2.46 4.544 4.436 6.21 2.513 2.126 5.443 3.703 8.602 4.628h1.427c.11.05.236.05.347 0 3.159-.925 6.089-2.502 8.601-4.628 1.91-1.726 3.423-3.844 4.436-6.21 1.274-4.274 1.68-8.759 1.196-13.192zM30.78 27.617h-2.237v2.199c0 1.214-.984 2.198-2.199 2.198-1.205-.02-2.178-.993-2.198-2.198v-2.199h-2.199c-.862.114-1.712-.282-2.18-1.015-.467-.734-.467-1.672 0-2.405.468-.733 1.318-1.13 2.18-1.016h2.199v-2.198c0-1.22.978-2.216 2.198-2.237.59 0 1.155.237 1.569.657.413.42.64.99.63 1.58v2.198h2.237c1.113.147 1.944 1.096 1.944 2.218 0 1.123-.831 2.071-1.944 2.218z" transform="translate(-57 -2946) translate(57 2946) translate(68.625 1.125)"/>
                </g>
                <g fill="#000" fill-rule="nonzero">
                    <path d="M3.72 15.624c1.114 1.577 2.961 2.475 4.894 2.381.993.099 1.983-.215 2.736-.869.752-.653 1.2-1.587 1.236-2.581v-1.013h-.15c-1.233 1.233-2.947 1.864-4.688 1.725-4.158.12-7.625-3.142-7.745-7.284C-.117 3.841 3.157.387 7.316.267h.3c1.78-.134 3.533.493 4.82 1.725V.55h3.895V14.63c0 4.087-3.256 6.956-7.867 6.956-2.979.112-5.835-1.189-7.699-3.506l2.956-2.456zm8.64-8.794c-.307-1.907-2.017-3.27-3.953-3.15-1.121-.117-2.24.245-3.079.995-.84.75-1.32 1.82-1.325 2.942-.141 2.101 1.433 3.927 3.538 4.107h.64c1.997.202 3.803-1.192 4.104-3.169V6.83h.075zM26.646.042c2.858-.2 5.59 1.206 7.08 3.644 1.49 2.438 1.49 5.5 0 7.938-1.49 2.438-4.222 3.843-7.08 3.643-4.16.182-7.704-2.979-7.98-7.117C18.39 4.011 21.482.41 25.63.042c.337-.056.68-.056 1.017 0zm0 3.525c-1.67-.007-3.18.99-3.824 2.527-.642 1.536-.29 3.306.89 4.483 1.182 1.177 2.96 1.527 4.501.887 1.542-.64 2.544-2.145 2.536-3.809.046-1.04-.325-2.055-1.031-2.821-.706-.767-1.69-1.223-2.733-1.267h-.34zM39.69 9.305c.586 1.871 2.433 3.056 4.385 2.812 2.09 0 3.313-.43 3.313-1.218s-.847-1.219-3.595-1.65c-5.327-.807-7.209-2.082-7.209-4.669 0-2.588 2.673-4.463 6.7-4.463 3.765 0 7.002 1.875 7.718 4.388l-3.67 1.144c-.755-1.513-2.356-2.418-4.047-2.288-1.657 0-2.73.488-2.73 1.219 0 .731.79.994 3.953 1.575 4.913.787 6.851 2.081 6.851 4.744 0 2.662-2.88 4.518-7.284 4.518-1.894.063-3.767-.412-5.402-1.368-1.395-.816-2.384-2.176-2.729-3.75l3.746-.994zM52.94.417h4.047v7.67c-.1.838.14 1.682.666 2.343.526.662 1.296 1.087 2.139 1.181h.715c.929.073 1.849-.227 2.555-.833.707-.605 1.142-1.466 1.21-2.392V.417h4.027v14.494h-3.896v-1.369c-1.317 1.247-3.077 1.922-4.894 1.875-1.83.19-3.646-.46-4.936-1.766s-1.911-3.127-1.69-4.946L52.94.417zM71.104.417h3.764v1.35C75.99.646 77.534.047 79.122.117c.809.02 1.612.139 2.39.357l-.865 3.75c-.677-.209-1.382-.31-2.09-.3-2.24 0-3.538 1.518-3.538 4.462v6.6h-4.047V.417h.132zM89.7.042c1.999-.122 3.963.566 5.444 1.908 1.482 1.342 2.356 3.224 2.424 5.217v1.875H85.823c.131 1.875 1.731 3.094 4.103 3.094 1.741.005 3.387-.79 4.46-2.156l2.523 2.475c-1.79 1.943-4.337 3.017-6.983 2.944-5.044 0-8.15-3.019-8.15-7.613-.05-1.992.697-3.923 2.078-5.365C85.234.978 87.135.143 89.135.099c.207-.113.358-.057.565-.057zm3.896 6.038c-.207-1.725-1.731-2.794-3.896-2.794-1.834-.25-3.542.98-3.877 2.794h7.773z" transform="translate(-57 -2946) translate(57 2946) translate(46.125 66.375)"/>
                </g>
            </g>
        </g>
    </g>
</svg>
